ffmpeg started on 2016-12-01 at 14:23:00
Report written to "Output/x264/results/ffmpeg/old_town_cross_2160p50slow3000k.log"
Command line:
Tools/ffmpeg/ffmpeg -benchmark -y -i Input/y4m/old_town_cross_2160p50.y4m -c:v libx264 -preset slow -b:v 3000k -an Output/x264/encoded/old_town_cross_2160p50slow3000k.mkv
ffmpeg version N-82227-gdb23fde Copyright (c) 2000-2016 the FFmpeg developers
  built with gcc 5.4.0 (Ubuntu 5.4.0-6ubuntu1~16.04.2) 20160609
  configuration: --prefix=/home/jaroslav/ffmpeg_build --pkg-config-flags=--static --extra-cflags=-I/home/jaroslav/ffmpeg_build/include --extra-ldflags=-L/home/jaroslav/ffmpeg_build/lib --bindir=/home/jaroslav/bin --enable-gpl --enable-libass --enable-libfdk-aac --enable-libfreetype --enable-libmp3lame --enable-libopus --enable-libtheora --enable-libvorbis --enable-libvpx --enable-libx264 --enable-libx265 --enable-nvenc --enable-libmfx --enable-libxvid --enable-libgsm --enable-libopencore-amrnb --enable-version3 --enable-nonfree
  libavutil      55. 35.100 / 55. 35.100
  libavcodec     57. 66.101 / 57. 66.101
  libavformat    57. 57.100 / 57. 57.100
  libavdevice    57.  2.100 / 57.  2.100
  libavfilter     6. 66.100 /  6. 66.100
  libswscale      4.  3.100 /  4.  3.100
  libswresample   2.  4.100 /  2.  4.100
  libpostproc    54.  2.100 / 54.  2.100
Input #0, yuv4mpegpipe, from 'Input/y4m/old_town_cross_2160p50.y4m':
  Duration: 00:00:10.00, start: 0.000000, bitrate: 4976642 kb/s
    Stream #0:0: Video: rawvideo (I420 / 0x30323449), yuv420p(progressive), 3840x2160, SAR 1:1 DAR 16:9, 50 fps, 50 tbr, 50 tbn, 50 tbc
[libx264 @ 0x432e120] using SAR=1/1
[libx264 @ 0x432e120] using cpu capabilities: MMX2 SSE2Fast SSSE3 SSE4.2 AVX FMA3 AVX2 LZCNT BMI2
[libx264 @ 0x432e120] profile High, level 5.2
[libx264 @ 0x432e120] 264 - core 148 - H.264/MPEG-4 AVC codec - Copyleft 2003-2016 - http://www.videolan.org/x264.html - options: cabac=1 ref=5 deblock=1:0:0 analyse=0x3:0x113 me=hex subme=8 psy=1 psy_rd=1.00:0.00 mixed_ref=1 me_range=16 chroma_me=1 trellis=2 8x8dct=1 cqm=0 deadzone=21,11 fast_pskip=1 chroma_qp_offset=-2 threads=6 lookahead_threads=1 sliced_threads=0 nr=0 decimate=1 interlaced=0 bluray_compat=0 constrained_intra=0 bframes=3 b_pyramid=2 b_adapt=1 b_bias=0 direct=3 weightb=1 open_gop=0 weightp=2 keyint=250 keyint_min=25 scenecut=40 intra_refresh=0 rc_lookahead=50 rc=abr mbtree=1 bitrate=3000 ratetol=1.0 qcomp=0.60 qpmin=0 qpmax=69 qpstep=4 ip_ratio=1.40 aq=1:1.00
Output #0, matroska, to 'Output/x264/encoded/old_town_cross_2160p50slow3000k.mkv':
  Metadata:
    encoder         : Lavf57.57.100
    Stream #0:0: Video: h264 (libx264) (H264 / 0x34363248), yuv420p, 3840x2160 [SAR 1:1 DAR 16:9], q=-1--1, 3000 kb/s, 50 fps, 1k tbn, 50 tbc
    Metadata:
      encoder         : Lavc57.66.101 libx264
    Side data:
      cpb: bitrate max/min/avg: 0/0/3000000 buffer size: 0 vbv_delay: -1
Stream mapping:
  Stream #0:0 -> #0:0 (rawvideo (native) -> h264 (libx264))
Press [q] to stop, [?] for help
frame=   57 fps= 18 q=0.0 size=       0kB time=00:00:00.00 bitrate=N/A speed=   0x    frame=   65 fps= 17 q=53.0 size=       1kB time=00:00:00.04 bitrate= 143.2kbits/s speed=0.011x    frame=   74 fps= 17 q=48.0 size=       1kB time=00:00:00.22 bitrate=  26.6kbits/s speed=0.051x    frame=   82 fps= 17 q=46.0 size=       1kB time=00:00:00.38 bitrate=  15.4kbits/s speed=0.0788x    frame=   88 fps= 16 q=46.0 size=       1kB time=00:00:00.50 bitrate=  11.7kbits/s speed=0.0934x    frame=   96 fps= 16 q=45.0 size=       1kB time=00:00:00.66 bitrate=   8.9kbits/s speed=0.112x    frame=  104 fps= 16 q=45.0 size=       1kB time=00:00:00.82 bitrate=   7.2kbits/s speed=0.126x    frame=  112 fps= 16 q=44.0 size=       1kB time=00:00:00.98 bitrate=   6.0kbits/s speed=0.136x    frame=  120 fps= 15 q=44.0 size=       1kB time=00:00:01.14 bitrate=   5.1kbits/s speed=0.146x    frame=  127 fps= 15 q=44.0 size=       1kB time=00:00:01.28 bitrate=   4.6kbits/s speed=0.154x    frame=  133 fps= 15 q=43.0 size=       1kB time=00:00:01.40 bitrate=   4.2kbits/s speed=0.159x    frame=  141 fps= 15 q=43.0 size=       1kB time=00:00:01.56 bitrate=   3.8kbits/s speed=0.166x    frame=  147 fps= 15 q=43.0 size=       1kB time=00:00:01.68 bitrate=   3.5kbits/s speed=0.17x    frame=  154 fps= 15 q=43.0 size=       1kB time=00:00:01.82 bitrate=   3.2kbits/s speed=0.174x    frame=  160 fps= 15 q=43.0 size=       1kB time=00:00:01.94 bitrate=   3.0kbits/s speed=0.177x    frame=  169 fps= 15 q=43.0 size=       1kB time=00:00:02.12 bitrate=   2.8kbits/s speed=0.183x    frame=  176 fps= 14 q=43.0 size=       1kB time=00:00:02.26 bitrate=   2.6kbits/s speed=0.186x    frame=  181 fps= 14 q=43.0 size=       1kB time=00:00:02.36 bitrate=   2.5kbits/s speed=0.186x    frame=  188 fps= 14 q=43.0 size=       1kB time=00:00:02.50 bitrate=   2.3kbits/s speed=0.188x    frame=  196 fps= 14 q=43.0 size=       1kB time=00:00:02.66 bitrate=   2.2kbits/s speed=0.191x    frame=  204 fps= 14 q=42.0 size=       1kB time=00:00:02.82 bitrate=   2.1kbits/s speed=0.194x    frame=  212 fps= 14 q=42.0 size=       1kB time=00:00:02.98 bitrate=   2.0kbits/s speed=0.196x    frame=  220 fps= 14 q=42.0 size=       1kB time=00:00:03.14 bitrate=   1.9kbits/s speed=0.199x    frame=  227 fps= 14 q=42.0 size=       1kB time=00:00:03.28 bitrate=   1.8kbits/s speed=0.201x    frame=  232 fps= 14 q=42.0 size=       1kB time=00:00:03.38 bitrate=   1.7kbits/s speed=0.201x    frame=  240 fps= 14 q=42.0 size=       1kB time=00:00:03.54 bitrate=   1.7kbits/s speed=0.202x    frame=  247 fps= 14 q=42.0 size=       1kB time=00:00:03.68 bitrate=   1.6kbits/s speed=0.204x    frame=  255 fps= 14 q=42.0 size=       1kB time=00:00:03.84 bitrate=   1.5kbits/s speed=0.205x    frame=  264 fps= 14 q=42.0 size=       1kB time=00:00:04.02 bitrate=   1.5kbits/s speed=0.207x    frame=  271 fps= 14 q=42.0 size=       1kB time=00:00:04.16 bitrate=   1.4kbits/s speed=0.208x    frame=  272 fps= 13 q=42.0 size=       1kB time=00:00:04.18 bitrate=   1.4kbits/s speed=0.197x    frame=  273 fps= 12 q=42.0 size=       1kB time=00:00:04.20 bitrate=   1.4kbits/s speed=0.191x    frame=  275 fps= 12 q=42.0 size=       1kB time=00:00:04.24 bitrate=   1.4kbits/s speed=0.185x    frame=  280 fps= 12 q=42.0 size=       1kB time=00:00:04.34 bitrate=   1.4kbits/s speed=0.185x    frame=  284 fps= 12 q=42.0 size=       1kB time=00:00:04.42 bitrate=   1.3kbits/s speed=0.184x    frame=  289 fps= 12 q=42.0 size=       1kB time=00:00:04.52 bitrate=   1.3kbits/s speed=0.184x    frame=  293 fps= 12 q=42.0 size=       1kB time=00:00:04.60 bitrate=   1.3kbits/s speed=0.183x    frame=  297 fps= 12 q=42.0 size=       1kB time=00:00:04.68 bitrate=   1.3kbits/s speed=0.183x    frame=  301 fps= 12 q=42.0 size=       1kB time=00:00:04.76 bitrate=   1.2kbits/s speed=0.182x    frame=  305 fps= 11 q=39.0 size=       1kB time=00:00:04.84 bitrate=   1.2kbits/s speed=0.182x    frame=  311 fps= 11 q=43.0 size=    1663kB time=00:00:04.96 bitrate=2745.8kbits/s speed=0.182x    frame=  318 fps= 11 q=43.0 size=    1663kB time=00:00:05.10 bitrate=2670.4kbits/s speed=0.184x    frame=  325 fps= 11 q=43.0 size=    1663kB time=00:00:05.24 bitrate=2599.1kbits/s speed=0.185x    frame=  333 fps= 12 q=43.0 size=    1663kB time=00:00:05.40 bitrate=2522.1kbits/s speed=0.187x    frame=  340 fps= 12 q=43.0 size=    1663kB time=00:00:05.54 bitrate=2458.4kbits/s speed=0.189x    frame=  345 fps= 12 q=42.0 size=    1663kB time=00:00:05.64 bitrate=2414.8kbits/s speed=0.189x    frame=  353 fps= 12 q=42.0 size=    1663kB time=00:00:05.80 bitrate=2348.2kbits/s speed=0.19x    frame=  361 fps= 12 q=42.0 size=    1663kB time=00:00:05.96 bitrate=2285.1kbits/s speed=0.191x    frame=  369 fps= 12 q=42.0 size=    1663kB time=00:00:06.12 bitrate=2225.4kbits/s speed=0.193x    frame=  377 fps= 12 q=42.0 size=    1663kB time=00:00:06.28 bitrate=2168.7kbits/s speed=0.193x    frame=  384 fps= 12 q=42.0 size=    1663kB time=00:00:06.42 bitrate=2121.4kbits/s speed=0.195x    frame=  391 fps= 12 q=42.0 size=    1663kB time=00:00:06.56 bitrate=2076.2kbits/s speed=0.195x    frame=  397 fps= 12 q=42.0 size=    1663kB time=00:00:06.68 bitrate=2038.9kbits/s speed=0.196x    frame=  405 fps= 12 q=42.0 size=    1663kB time=00:00:06.84 bitrate=1991.2kbits/s speed=0.197x    frame=  410 fps= 12 q=42.0 size=    1663kB time=00:00:06.94 bitrate=1962.5kbits/s speed=0.197x    frame=  416 fps= 12 q=42.0 size=    1663kB time=00:00:07.06 bitrate=1929.1kbits/s speed=0.198x    frame=  423 fps= 12 q=42.0 size=    1663kB time=00:00:07.20 bitrate=1891.6kbits/s speed=0.198x    frame=  431 fps= 12 q=42.0 size=    1663kB time=00:00:07.36 bitrate=1850.5kbits/s speed=0.199x    frame=  437 fps= 12 q=42.0 size=    1663kB time=00:00:07.48 bitrate=1820.8kbits/s speed=0.199x    frame=  445 fps= 12 q=42.0 size=    1663kB time=00:00:07.64 bitrate=1782.7kbits/s speed= 0.2x    frame=  452 fps= 12 q=42.0 size=    1663kB time=00:00:07.78 bitrate=1750.6kbits/s speed=0.201x    frame=  460 fps= 12 q=42.0 size=    1663kB time=00:00:07.94 bitrate=1715.4kbits/s speed=0.201x    frame=  466 fps= 12 q=42.0 size=    1663kB time=00:00:08.06 bitrate=1689.8kbits/s speed=0.202x    frame=  473 fps= 12 q=42.0 size=    1663kB time=00:00:08.20 bitrate=1661.0kbits/s speed=0.202x    frame=  481 fps= 12 q=42.0 size=    1663kB time=00:00:08.36 bitrate=1629.2kbits/s speed=0.203x    frame=  488 fps= 12 q=42.0 size=    1663kB time=00:00:08.50 bitrate=1602.4kbits/s speed=0.203x    frame=  495 fps= 12 q=42.0 size=    1663kB time=00:00:08.64 bitrate=1576.4kbits/s speed=0.204x    frame=  500 fps= 12 q=42.0 size=    1663kB time=00:00:08.74 bitrate=1558.4kbits/s speed=0.204x    frame=  500 fps= 11 q=-1.0 Lsize=    3650kB time=00:00:09.94 bitrate=3008.0kbits/s speed=0.209x    
video:3646kB audio:0kB subtitle:0kB other streams:0kB global headers:0kB muxing overhead: 0.116889%
bench: utime=159.864s
bench: maxrss=2224416kB
[libx264 @ 0x432e120] frame I:3     Avg QP:38.82  size: 97772
[libx264 @ 0x432e120] frame P:183   Avg QP:40.79  size:  9471
[libx264 @ 0x432e120] frame B:314   Avg QP:42.92  size:  5434
[libx264 @ 0x432e120] consecutive B-frames: 16.0%  0.8%  0.0% 83.2%
[libx264 @ 0x432e120] mb I  I16..4: 24.7% 71.1%  4.2%
[libx264 @ 0x432e120] mb P  I16..4:  0.1%  0.0%  0.0%  P16..4: 11.8%  0.4%  3.6%  0.0%  0.0%    skip:84.1%
[libx264 @ 0x432e120] mb B  I16..4:  0.0%  0.0%  0.0%  B16..8: 24.5%  0.0%  0.0%  direct: 0.0%  skip:75.5%  L0:40.1% L1:59.9% BI: 0.0%
[libx264 @ 0x432e120] final ratefactor: 34.79
[libx264 @ 0x432e120] 8x8 transform intra:68.6% inter:92.9%
[libx264 @ 0x432e120] direct mvs  spatial:98.7% temporal:1.3%
[libx264 @ 0x432e120] coded y,uvDC,uvAC intra: 26.9% 26.4% 4.3% inter: 0.4% 0.6% 0.0%
[libx264 @ 0x432e120] i16 v,h,dc,p: 16% 36%  2% 45%
[libx264 @ 0x432e120] i8 v,h,dc,ddl,ddr,vr,hd,vl,hu:  8%  3% 40%  7% 11%  7% 12%  4%  8%
[libx264 @ 0x432e120] i4 v,h,dc,ddl,ddr,vr,hd,vl,hu:  4%  4%  4% 14% 19% 12% 20%  8% 16%
[libx264 @ 0x432e120] i8c dc,h,v,p: 14% 71%  9%  6%
[libx264 @ 0x432e120] Weighted P-Frames: Y:0.5% UV:0.0%
[libx264 @ 0x432e120] ref P L0: 76.5% 13.0%  8.0%  1.1%  1.1%  0.3%
[libx264 @ 0x432e120] ref B L0: 94.9%  4.0%  0.9%  0.2%
[libx264 @ 0x432e120] ref B L1: 97.3%  2.7%
[libx264 @ 0x432e120] kb/s:2986.22
